<mxfile host="Electron" agent="Mozilla/5.0 (X11; Linux x86_64) AppleWebKit/537.36 (KHTML, like Gecko) draw.io/24.7.17 Chrome/128.0.6613.36 Electron/32.0.1 Safari/537.36" version="24.7.17">
  <diagram name="Page-1" id="lt8WRXRB4AFgMDzZljJm">
    <mxGraphModel dx="1434" dy="839" grid="1" gridSize="10" guides="1" tooltips="1" connect="1" arrows="1" fold="1" page="1" pageScale="1" pageWidth="850" pageHeight="1100" math="0" shadow="0">
      <root>
        <mxCell id="0" />
        <mxCell id="1" parent="0" />
        <mxCell id="8H4-ZsUqkacAHLsqrGic-4" value="" style="edgeStyle=orthogonalEdgeStyle;rounded=0;orthogonalLoop=1;jettySize=auto;html=1;" parent="1" source="8H4-ZsUqkacAHLsqrGic-2" target="8H4-ZsUqkacAHLsqrGic-3" edge="1">
          <mxGeometry relative="1" as="geometry" />
        </mxCell>
        <mxCell id="8H4-ZsUqkacAHLsqrGic-2" value="Start" style="ellipse;whiteSpace=wrap;html=1;aspect=fixed;" parent="1" vertex="1">
          <mxGeometry x="80" y="40" width="80" height="80" as="geometry" />
        </mxCell>
        <mxCell id="8H4-ZsUqkacAHLsqrGic-9" value="" style="edgeStyle=orthogonalEdgeStyle;rounded=0;orthogonalLoop=1;jettySize=auto;html=1;" parent="1" source="8H4-ZsUqkacAHLsqrGic-3" target="8H4-ZsUqkacAHLsqrGic-8" edge="1">
          <mxGeometry relative="1" as="geometry" />
        </mxCell>
        <mxCell id="8H4-ZsUqkacAHLsqrGic-3" value="Init LCD, interrupts, and ports" style="rounded=1;whiteSpace=wrap;html=1;" parent="1" vertex="1">
          <mxGeometry x="60" y="160" width="120" height="60" as="geometry" />
        </mxCell>
        <mxCell id="8H4-ZsUqkacAHLsqrGic-11" value="Yes" style="edgeStyle=orthogonalEdgeStyle;rounded=0;orthogonalLoop=1;jettySize=auto;html=1;" parent="1" source="8H4-ZsUqkacAHLsqrGic-8" target="8H4-ZsUqkacAHLsqrGic-10" edge="1">
          <mxGeometry relative="1" as="geometry" />
        </mxCell>
        <mxCell id="8H4-ZsUqkacAHLsqrGic-13" value="No" style="edgeStyle=orthogonalEdgeStyle;rounded=0;orthogonalLoop=1;jettySize=auto;html=1;" parent="1" source="8H4-ZsUqkacAHLsqrGic-8" target="8H4-ZsUqkacAHLsqrGic-12" edge="1">
          <mxGeometry relative="1" as="geometry" />
        </mxCell>
        <mxCell id="8H4-ZsUqkacAHLsqrGic-8" value="if PORTB" style="rhombus;whiteSpace=wrap;html=1;rounded=1;" parent="1" vertex="1">
          <mxGeometry x="60" y="260" width="120" height="80" as="geometry" />
        </mxCell>
        <mxCell id="8H4-ZsUqkacAHLsqrGic-15" value="Yes" style="edgeStyle=orthogonalEdgeStyle;rounded=0;orthogonalLoop=1;jettySize=auto;html=1;" parent="1" source="8H4-ZsUqkacAHLsqrGic-10" target="8H4-ZsUqkacAHLsqrGic-14" edge="1">
          <mxGeometry relative="1" as="geometry" />
        </mxCell>
        <mxCell id="8H4-ZsUqkacAHLsqrGic-49" value="" style="edgeStyle=orthogonalEdgeStyle;rounded=0;orthogonalLoop=1;jettySize=auto;html=1;" parent="1" source="8H4-ZsUqkacAHLsqrGic-10" target="8H4-ZsUqkacAHLsqrGic-48" edge="1">
          <mxGeometry relative="1" as="geometry" />
        </mxCell>
        <mxCell id="8H4-ZsUqkacAHLsqrGic-10" value="if PORTB" style="rhombus;whiteSpace=wrap;html=1;rounded=1;" parent="1" vertex="1">
          <mxGeometry x="60" y="380" width="120" height="80" as="geometry" />
        </mxCell>
        <mxCell id="8H4-ZsUqkacAHLsqrGic-17" style="edgeStyle=orthogonalEdgeStyle;rounded=0;orthogonalLoop=1;jettySize=auto;html=1;entryX=0.5;entryY=0;entryDx=0;entryDy=0;" parent="1" source="8H4-ZsUqkacAHLsqrGic-12" target="8H4-ZsUqkacAHLsqrGic-8" edge="1">
          <mxGeometry relative="1" as="geometry">
            <Array as="points">
              <mxPoint x="280" y="240" />
              <mxPoint x="120" y="240" />
            </Array>
          </mxGeometry>
        </mxCell>
        <mxCell id="8H4-ZsUqkacAHLsqrGic-12" value="Increment time" style="whiteSpace=wrap;html=1;rounded=1;" parent="1" vertex="1">
          <mxGeometry x="220" y="270" width="120" height="60" as="geometry" />
        </mxCell>
        <mxCell id="8H4-ZsUqkacAHLsqrGic-16" style="edgeStyle=orthogonalEdgeStyle;rounded=0;orthogonalLoop=1;jettySize=auto;html=1;entryX=0.5;entryY=0;entryDx=0;entryDy=0;" parent="1" source="8H4-ZsUqkacAHLsqrGic-14" target="8H4-ZsUqkacAHLsqrGic-10" edge="1">
          <mxGeometry relative="1" as="geometry">
            <Array as="points">
              <mxPoint x="280" y="360" />
              <mxPoint x="120" y="360" />
            </Array>
          </mxGeometry>
        </mxCell>
        <mxCell id="8H4-ZsUqkacAHLsqrGic-14" value="Increment time" style="whiteSpace=wrap;html=1;rounded=1;" parent="1" vertex="1">
          <mxGeometry x="220" y="390" width="120" height="60" as="geometry" />
        </mxCell>
        <mxCell id="BIUVwdXFIAs_Ipz9rHra-10" value="Yes" style="edgeStyle=orthogonalEdgeStyle;rounded=0;orthogonalLoop=1;jettySize=auto;html=1;" edge="1" parent="1" source="8H4-ZsUqkacAHLsqrGic-21" target="BIUVwdXFIAs_Ipz9rHra-9">
          <mxGeometry relative="1" as="geometry" />
        </mxCell>
        <mxCell id="BIUVwdXFIAs_Ipz9rHra-14" value="No" style="edgeStyle=orthogonalEdgeStyle;rounded=0;orthogonalLoop=1;jettySize=auto;html=1;" edge="1" parent="1" source="8H4-ZsUqkacAHLsqrGic-21" target="BIUVwdXFIAs_Ipz9rHra-13">
          <mxGeometry relative="1" as="geometry" />
        </mxCell>
        <mxCell id="8H4-ZsUqkacAHLsqrGic-21" value="if running" style="rhombus;whiteSpace=wrap;html=1;rounded=1;" parent="1" vertex="1">
          <mxGeometry x="60" y="600" width="120" height="80" as="geometry" />
        </mxCell>
        <mxCell id="8H4-ZsUqkacAHLsqrGic-64" value="" style="edgeStyle=orthogonalEdgeStyle;rounded=0;orthogonalLoop=1;jettySize=auto;html=1;" parent="1" source="8H4-ZsUqkacAHLsqrGic-45" target="8H4-ZsUqkacAHLsqrGic-63" edge="1">
          <mxGeometry relative="1" as="geometry" />
        </mxCell>
        <mxCell id="8H4-ZsUqkacAHLsqrGic-45" value="Timer2 Interupt" style="ellipse;whiteSpace=wrap;html=1;aspect=fixed;" parent="1" vertex="1">
          <mxGeometry x="440" y="40" width="80" height="80" as="geometry" />
        </mxCell>
        <mxCell id="8H4-ZsUqkacAHLsqrGic-50" value="" style="edgeStyle=orthogonalEdgeStyle;rounded=0;orthogonalLoop=1;jettySize=auto;html=1;" parent="1" source="8H4-ZsUqkacAHLsqrGic-48" target="8H4-ZsUqkacAHLsqrGic-21" edge="1">
          <mxGeometry relative="1" as="geometry" />
        </mxCell>
        <mxCell id="8H4-ZsUqkacAHLsqrGic-48" value="running = 1&lt;div&gt;time = (time % 40000) + 30000&lt;/div&gt;&lt;div&gt;Init timer2&lt;/div&gt;" style="whiteSpace=wrap;html=1;rounded=1;" parent="1" vertex="1">
          <mxGeometry x="60" y="500" width="120" height="60" as="geometry" />
        </mxCell>
        <mxCell id="8H4-ZsUqkacAHLsqrGic-67" value="" style="edgeStyle=orthogonalEdgeStyle;rounded=0;orthogonalLoop=1;jettySize=auto;html=1;" parent="1" source="8H4-ZsUqkacAHLsqrGic-63" target="8H4-ZsUqkacAHLsqrGic-66" edge="1">
          <mxGeometry relative="1" as="geometry" />
        </mxCell>
        <mxCell id="8H4-ZsUqkacAHLsqrGic-63" value="Init LCD, interrupts, and ports" style="rounded=1;whiteSpace=wrap;html=1;" parent="1" vertex="1">
          <mxGeometry x="420" y="160" width="120" height="60" as="geometry" />
        </mxCell>
        <mxCell id="8H4-ZsUqkacAHLsqrGic-72" value="" style="edgeStyle=orthogonalEdgeStyle;rounded=0;orthogonalLoop=1;jettySize=auto;html=1;" parent="1" source="8H4-ZsUqkacAHLsqrGic-66" target="8H4-ZsUqkacAHLsqrGic-71" edge="1">
          <mxGeometry relative="1" as="geometry" />
        </mxCell>
        <mxCell id="BIUVwdXFIAs_Ipz9rHra-3" value="" style="edgeStyle=orthogonalEdgeStyle;rounded=0;orthogonalLoop=1;jettySize=auto;html=1;" edge="1" parent="1" source="8H4-ZsUqkacAHLsqrGic-66" target="BIUVwdXFIAs_Ipz9rHra-2">
          <mxGeometry relative="1" as="geometry" />
        </mxCell>
        <mxCell id="8H4-ZsUqkacAHLsqrGic-66" value="if PORTB" style="rhombus;whiteSpace=wrap;html=1;rounded=1;" parent="1" vertex="1">
          <mxGeometry x="440" y="260" width="80" height="80" as="geometry" />
        </mxCell>
        <mxCell id="8H4-ZsUqkacAHLsqrGic-69" value="End" style="ellipse;whiteSpace=wrap;html=1;rounded=1;" parent="1" vertex="1">
          <mxGeometry x="440" y="500" width="80" height="80" as="geometry" />
        </mxCell>
        <mxCell id="BIUVwdXFIAs_Ipz9rHra-4" style="edgeStyle=orthogonalEdgeStyle;rounded=0;orthogonalLoop=1;jettySize=auto;html=1;" edge="1" parent="1" source="8H4-ZsUqkacAHLsqrGic-71" target="8H4-ZsUqkacAHLsqrGic-69">
          <mxGeometry relative="1" as="geometry">
            <Array as="points">
              <mxPoint x="720" y="300" />
              <mxPoint x="720" y="540" />
            </Array>
          </mxGeometry>
        </mxCell>
        <mxCell id="8H4-ZsUqkacAHLsqrGic-71" value="running = 0" style="whiteSpace=wrap;html=1;rounded=1;" parent="1" vertex="1">
          <mxGeometry x="560" y="270" width="120" height="60" as="geometry" />
        </mxCell>
        <mxCell id="BIUVwdXFIAs_Ipz9rHra-6" value="" style="edgeStyle=orthogonalEdgeStyle;rounded=0;orthogonalLoop=1;jettySize=auto;html=1;" edge="1" parent="1" source="BIUVwdXFIAs_Ipz9rHra-2" target="BIUVwdXFIAs_Ipz9rHra-5">
          <mxGeometry relative="1" as="geometry" />
        </mxCell>
        <mxCell id="BIUVwdXFIAs_Ipz9rHra-8" value="" style="edgeStyle=orthogonalEdgeStyle;rounded=0;orthogonalLoop=1;jettySize=auto;html=1;" edge="1" parent="1" source="BIUVwdXFIAs_Ipz9rHra-2" target="8H4-ZsUqkacAHLsqrGic-69">
          <mxGeometry relative="1" as="geometry" />
        </mxCell>
        <mxCell id="BIUVwdXFIAs_Ipz9rHra-2" value="if time == 0" style="rhombus;whiteSpace=wrap;html=1;rounded=1;" vertex="1" parent="1">
          <mxGeometry x="440" y="380" width="80" height="80" as="geometry" />
        </mxCell>
        <mxCell id="BIUVwdXFIAs_Ipz9rHra-7" style="edgeStyle=orthogonalEdgeStyle;rounded=0;orthogonalLoop=1;jettySize=auto;html=1;entryX=1;entryY=0.5;entryDx=0;entryDy=0;" edge="1" parent="1" source="BIUVwdXFIAs_Ipz9rHra-5" target="8H4-ZsUqkacAHLsqrGic-69">
          <mxGeometry relative="1" as="geometry">
            <Array as="points">
              <mxPoint x="720" y="420" />
              <mxPoint x="720" y="540" />
            </Array>
          </mxGeometry>
        </mxCell>
        <mxCell id="BIUVwdXFIAs_Ipz9rHra-5" value="PORTA = 0xFF" style="whiteSpace=wrap;html=1;rounded=1;" vertex="1" parent="1">
          <mxGeometry x="560" y="390" width="120" height="60" as="geometry" />
        </mxCell>
        <mxCell id="BIUVwdXFIAs_Ipz9rHra-12" style="edgeStyle=orthogonalEdgeStyle;rounded=0;orthogonalLoop=1;jettySize=auto;html=1;entryX=0.5;entryY=0;entryDx=0;entryDy=0;" edge="1" parent="1" source="BIUVwdXFIAs_Ipz9rHra-9" target="8H4-ZsUqkacAHLsqrGic-21">
          <mxGeometry relative="1" as="geometry">
            <Array as="points">
              <mxPoint x="280" y="580" />
              <mxPoint x="120" y="580" />
            </Array>
          </mxGeometry>
        </mxCell>
        <mxCell id="BIUVwdXFIAs_Ipz9rHra-9" value="Update LCD" style="whiteSpace=wrap;html=1;rounded=1;" vertex="1" parent="1">
          <mxGeometry x="220" y="610" width="120" height="60" as="geometry" />
        </mxCell>
        <mxCell id="BIUVwdXFIAs_Ipz9rHra-13" value="Print time delta (negative time)" style="whiteSpace=wrap;html=1;rounded=1;" vertex="1" parent="1">
          <mxGeometry x="60" y="720" width="120" height="60" as="geometry" />
        </mxCell>
      </root>
    </mxGraphModel>
  </diagram>
</mxfile>
